<?xml version="1.0" encoding="UTF-8"?>
<svg xmlns="http://www.w3.org/2000/svg" xmlns:xlink="http://www.w3.org/1999/xlink" viewBox="0 0 30 30" width="30px" height="30px">
<g id="surface301453455">
<path style=" stroke:none;fill-rule:nonzero;fill:rgb(10.980392%,53.333336%,72.549021%);fill-opacity:1;" d="M 28.21875 21.628906 C 27.933594 23.097656 26.730469 24.21875 25.242188 24.429688 C 22.902344 24.777344 19.378906 25.125 14.984375 25.125 C 10.660156 25.125 7.066406 24.722656 4.65625 24.375 C 3.164062 24.164062 1.960938 23.042969 1.675781 21.574219 C 1.394531 19.964844 1.128906 17.960938 1.128906 15.019531 C 1.128906 12.078125 1.425781 9.980469 1.710938 8.371094 C 1.992188 6.902344 3.199219 5.78125 4.6875 5.570312 C 7.027344 5.222656 10.621094 4.78125 15.015625 4.78125 C 19.410156 4.78125 22.863281 5.273438 25.273438 5.625 C 26.761719 5.835938 27.96875 6.953125 28.25 8.425781 C 28.535156 10.035156 28.875 12.132812 28.875 15.074219 C 28.804688 18.011719 28.503906 20.019531 28.21875 21.628906 Z M 28.21875 21.628906 "/>
<path style=" stroke:none;fill-rule:nonzero;fill:rgb(10.980392%,53.333336%,72.549021%);fill-opacity:1;" d="M 15.003906 5.25 C 19.363281 5.25 23.132812 5.664062 25.53125 6.011719 C 26.710938 6.179688 27.652344 7.0625 27.871094 8.199219 C 28.140625 9.726562 28.5 12.09375 28.5 14.980469 C 28.421875 18.265625 28.074219 20.664062 27.875 21.789062 C 27.652344 22.9375 26.710938 23.820312 25.523438 23.988281 C 23.992188 24.21875 19.902344 24.75 15.003906 24.75 C 10.410156 24.75 6.4375 24.273438 4.472656 23.988281 C 3.292969 23.820312 2.351562 22.9375 2.132812 21.800781 C 1.878906 20.359375 1.574219 18.011719 1.574219 15 C 1.574219 11.988281 1.878906 9.640625 2.128906 8.210938 C 2.351562 7.0625 3.292969 6.179688 4.480469 6.011719 C 6.011719 5.78125 10.101562 5.25 15.003906 5.25 M 15.003906 4.5 C 10.605469 4.5 6.707031 4.921875 4.371094 5.269531 C 2.878906 5.480469 1.675781 6.601562 1.390625 8.070312 C 1.109375 9.679688 0.824219 12.058594 0.824219 15 C 0.824219 17.941406 1.109375 20.320312 1.390625 21.929688 C 1.675781 23.398438 2.878906 24.519531 4.371094 24.730469 C 6.777344 25.078125 10.679688 25.5 15.003906 25.5 C 19.398438 25.5 23.296875 25.078125 25.636719 24.730469 C 27.125 24.519531 28.328125 23.398438 28.613281 21.929688 C 28.894531 20.320312 29.179688 17.941406 29.25 15 C 29.25 12.058594 28.894531 9.679688 28.613281 8.070312 C 28.328125 6.601562 27.121094 5.480469 25.632812 5.269531 C 23.222656 4.921875 19.398438 4.5 15.003906 4.5 Z M 15.003906 4.5 "/>
<path style=" stroke:none;fill-rule:nonzero;fill:rgb(100%,100%,100%);fill-opacity:1;" d="M 12 19.5 L 12 10.5 L 20.25 15 Z M 12 19.5 "/>
</g>
</svg>
